<svg id="Layer_1" data-name="Layer 1" xmlns="http://www.w3.org/2000/svg" viewBox="0 0 486.02 444.6">
  <title>1Vector Smart Object2</title>
  <path d="M420.92,85.81a222.38,222.38,0,0,0-316.4,2,6,6,0,0,0,8.6,8.4,208.44,208.44,0,0,1,150.6-63.5C379.62,32.71,474,127,474,243s-94.4,210.3-210.3,210.3S53.32,359,53.32,243v-17.8l31.1,31.1a5.92,5.92,0,0,0,4.2,1.8,5.76,5.76,0,0,0,4.2-1.8,6.1,6.1,0,0,0,0-8.5l-41.3-41.3a6.1,6.1,0,0,0-8.5,0l-41.3,41.3a6.1,6.1,0,0,0,0,8.5,5.92,5.92,0,0,0,4.2,1.8,5.76,5.76,0,0,0,4.2-1.8l31.1-31.1V243a222.31,222.31,0,0,0,379.5,157.2,222.11,222.11,0,0,0,.2-314.4Z" transform="translate(0 -20.71)" style="fill: #7f7f7f"/>
  <path d="M352.73,222.81H326v-38.2a62.3,62.3,0,1,0-124.6,0v38.2h-26.6a6,6,0,0,0-6,6v114.8a6,6,0,0,0,6,6h177.9a6,6,0,0,0,6-6V228.81A6,6,0,0,0,352.73,222.81Zm-139.4-38.2a50.3,50.3,0,1,1,100.6,0v38.2H213.32v-38.2Zm-32.6,153V234.81h165.9v102.8Z" transform="translate(0 -20.71)" style="fill: #7f7f7f"/>
</svg>
