<svg id="Layer_1" data-name="Layer 1" xmlns="http://www.w3.org/2000/svg" viewBox="0 0 511.65 418.13">
  <title>1Vector Smart Object4</title>
  <path d="M506.88,266.92c-15.36-20.48-30.72-20.48-68.27-.85l-37.55,23.14V89.43a25.67,25.67,0,0,0-25.6-25.6h-76.8V55.29c0-5.12-3.41-8.53-8.53-8.53H204.8c-5.12,0-8.53,3.41-8.53,8.53v8.53h-76.8a25.67,25.67,0,0,0-25.6,25.6V243A212.46,212.46,0,0,0,59.73,260.9V243H0V464.89H59.73v-25.6H170.67c17.07,0,35-1.71,52.05-2.56l110.93-17.07A50.33,50.33,0,0,0,345.6,418c10.24-1.71,19.63-6.83,28.16-14.51l128.85-102.4C512.85,292.52,514.56,277.16,506.88,266.92ZM213.33,63.83H281.6v67.41l-29-23c-2.56-2.56-6.83-2.56-10.24,0l-29,23V63.83Zm-102.4,25.6a8.55,8.55,0,0,1,8.53-8.53h76.8v52.05a15.77,15.77,0,0,0,9.39,14.51,16.26,16.26,0,0,0,6.52,1.7,14.23,14.23,0,0,0,10.54-3.4l24.75-19.63,23,19.63a17.87,17.87,0,0,0,10.86,3.17,17.54,17.54,0,0,0,7.92-1.46,15.77,15.77,0,0,0,9.39-14.51V80.89h75.09a8.55,8.55,0,0,1,8.53,8.53V300.2l-17.92,11.09c-10.1,5.89-32.67,7.63-53.76,7.68q6.4-11.52-5.12-28.16c-13.65-19.63-36.69-31.57-61.44-31.57H210.77c-17.92,0-35-5.12-48.64-15.36A47.73,47.73,0,0,0,136,234.67c-1.49-.11-3-.17-4.54-.17a95.63,95.63,0,0,0-20.48,2.56ZM42.67,447.83H17.07V260.09h25.6V447.83ZM492.37,289.11,362.67,389.8l-.85.85a29.61,29.61,0,0,1-19.63,10.24,35,35,0,0,1-9.39.85L220.16,418.81a321.71,321.71,0,0,1-49.49,3.41H59.73V281.43c9.89-7,26.15-17,43-23.34a10.13,10.13,0,0,0,3.06-.55c20.48-6.83,35.84-6.83,46.08.85,16.21,11.95,36.69,18.77,58.88,18.77h33.28c19.63,0,37.55,8.53,47.79,24.75,4.18,5,5.08,10,4.31,11.83l0,.12a9.08,9.08,0,0,1-4.37,3.27l-.13.06-.8.31-.73.26-.25.08a42.8,42.8,0,0,1-4.71,1.22h0l-1.78.33-.33.06-1.66.26-.39.06q-4.24.6-9.57.92H183.47c-26.45,0-42.67,12.8-42.67,34.13,0,5.12,3.41,8.53,8.53,8.53s8.53-3.41,8.53-8.53c0-4.27,0-17.07,25.6-17.07h93.87c40.11.85,77.65,0,97.28-10.24L448,282.28c35.84-17.92,39.25-13.65,46.08-3.41C495.79,281.43,495.79,286.55,492.37,289.11Z" transform="translate(0 -46.76)" style="fill: #7f7f7f"/>
</svg>
