<svg id="Capa_1" data-name="Capa 1" xmlns="http://www.w3.org/2000/svg" viewBox="0 0 343.48 429.1">
  <title>1Vector Smart Object1</title>
  <g>
    <path d="M378.79,235.38H364.21V176.93a33.31,33.31,0,0,0-33.28-33.28h-8.64l14.27-18.37a7.5,7.5,0,0,0-1.32-10.52l-42.49-33L269.42,11.81a7.5,7.5,0,0,0-9.49-4.74L215.64,21.85,189.55,1.58A7.5,7.5,0,0,0,179,2.9L69.68,143.65H50.31a7.5,7.5,0,0,0-7.5,7.5V421.6a7.5,7.5,0,0,0,7.5,7.5H330.93a33.31,33.31,0,0,0,33.28-33.28V337.37h14.59a7.5,7.5,0,0,0,7.5-7.5v-87A7.5,7.5,0,0,0,378.79,235.38Zm-75.5-91.73h-.57a36.19,36.19,0,0,1-4.64-38.76l22,17.11Zm-45.73-120,13.84,41.5L229.88,32.91ZM186.27,18l22,17.1A36.2,36.2,0,0,1,169.16,40Zm-26.45,34a50.62,50.62,0,0,0,25.13,6.59,50.78,50.78,0,0,0,35.35-14.2l65.77,51.09a51.2,51.2,0,0,0-1.15,48.1H88.67ZM349.21,395.82a18.3,18.3,0,0,1-18.28,18.28H57.81V158.65H330.93a18.3,18.3,0,0,1,18.28,18.28v58.45H278.3a7.5,7.5,0,0,0-7.5,7.5v87a7.5,7.5,0,0,0,7.5,7.5h70.91v58.45Zm22.09-73.45H285.8v-72h85.49Z" transform="translate(-42.81 0)" style="fill: #7f7f7f"/>
    <path d="M328.55,308.87a22.5,22.5,0,1,0-22.5-22.5A22.52,22.52,0,0,0,328.55,308.87Zm0-30a7.5,7.5,0,1,1-7.5,7.5A7.51,7.51,0,0,1,328.55,278.87Z" transform="translate(-42.81 0)" style="fill: #7f7f7f"/>
  </g>
</svg>
