<svg id="Layer_3" data-name="Layer 3" xmlns="http://www.w3.org/2000/svg" viewBox="0 0 21.36 24.57">
  <title>1Vector Smart Object3</title>
  <g>
    <path d="M714.69,647.61c-2.54,0-5-2.08-9-6.19a7,7,0,0,1-1.64-4.13v-9.87a3.29,3.29,0,0,1,2.23-3,27,27,0,0,1,16.9,0,3.34,3.34,0,0,1,2.23,3v9.87a6.92,6.92,0,0,1-1.64,4.13c-4,4.11-6.5,6.2-9,6.2Zm0-23.58a25.82,25.82,0,0,0-8.14,1.31,2.32,2.32,0,0,0-1.54,2.07v9.87a6,6,0,0,0,1.36,3.44c3.8,3.9,6.13,5.88,8.31,5.88s4.52-2,8.32-5.89a6,6,0,0,0,1.36-3.43v-9.86a2.36,2.36,0,0,0-1.53-2.07A25.86,25.86,0,0,0,714.7,624Z" transform="translate(-704.01 -623.04)" style="fill: #7f7f7f"/>
    <path d="M714.69,644.61c-1.6,0-4.28-2.61-6.88-5.28a4.17,4.17,0,0,1-.79-2v-9.61a.5.5,0,0,1,.35-.48,23.94,23.94,0,0,1,14.67,0,.5.5,0,0,1,.35.48v9.62a4.16,4.16,0,0,1-.8,2.05c-2.61,2.68-5.27,5.27-6.88,5.27ZM708,628v9.24a3.47,3.47,0,0,0,.51,1.36c1.45,1.49,4.85,5,6.16,5s4.7-3.47,6.14-5a3.43,3.43,0,0,0,.54-1.38V628A22.94,22.94,0,0,0,708,628Z" transform="translate(-704.01 -623.04)" style="fill: #7f7f7f"/>
    <text transform="translate(7.82 15.96)" style="font-size: 12px;fill: #7f7f7f;font-family: PFDinTextPro-Light, PF DinText Pro">1</text>
  </g>
</svg>
