<svg id="Capa_1" data-name="Capa 1" xmlns="http://www.w3.org/2000/svg" viewBox="0 0 41.09 52.23">
  <title>1Vector Smart Object</title>
  <g>
    <path d="M36.8,1.05,36.75,0l-1,.11c-.1,0-10.25,1.23-10.95,12.58l-.07,1.14,1.14-.08C25.93,13.74,37.43,12.83,36.8,1.05Zm-2,1.27c-.19,6.84-5.51,8.74-8,9.25A10.57,10.57,0,0,1,34.82,2.32Z" transform="translate(-5.57 0)" style="fill: #7f7f7f"/>
    <path d="M46.58,37.52l-.64-.21a9.24,9.24,0,0,1-1.18-17.17l1-.47-.54-.93a11.77,11.77,0,0,0-7-5.12c-3.63-.93-7.72-.11-12.15,2.45C24.18,14.93,18,11.65,13,14.94c-1,.54-11.25,6.7-5.9,23.31.16.37,3.89,9.11,8.3,12.39a6,6,0,0,0,7.72.19c.6-.25,4.64-1.8,7.2,0a8.14,8.14,0,0,0,4.34,1.38,5.2,5.2,0,0,0,3.86-1.62,31.06,31.06,0,0,0,8.07-11.89l.08-.2Zm-9.4,11.6-.08.07c-2.19,2.3-5.52.1-5.64,0A7.21,7.21,0,0,0,27.22,48a13.51,13.51,0,0,0-5,1.06l-.16.09c-3,2.11-5.09.25-5.31,0l-.12-.1C12.65,46.16,9,37.56,9,37.56,4,22,13.56,16.9,14,16.69l.11-.07c4.65-3.12,11.33,1.4,11.39,1.44l.53.37.55-.33c4.16-2.52,7.91-3.37,11.16-2.54a9.85,9.85,0,0,1,5.15,3.34,11.24,11.24,0,0,0,1.52,20A29.62,29.62,0,0,1,37.18,49.11Z" transform="translate(-5.57 0)" style="fill: #7f7f7f"/>
  </g>
</svg>
