<svg id="GLYPHS" xmlns="http://www.w3.org/2000/svg" viewBox="0 0 14 17"><defs><style>.cls-1{fill:#fff;}</style></defs><title>1Vector Smart Object</title><g id="MSP_Bag_Empty" data-name="MSP Bag Empty"><g id="MSP_Bag_Empty-2" data-name="MSP Bag Empty"><path class="cls-1" d="M41.5,16A1.5,1.5,0,0,0,40,17.5v11A1.5,1.5,0,0,0,41.5,30h11A1.5,1.5,0,0,0,54,28.5v-11A1.5,1.5,0,0,0,52.5,16ZM53,28.5a.5.5,0,0,1-.5.5h-11a.5.5,0,0,1-.5-.5v-11a.5.5,0,0,1,.5-.5h11a.5.5,0,0,1,.5.5Z" transform="translate(-40 -13)"/></g><path class="cls-1" d="M50.75,17h-7.5v-.5a3.76,3.76,0,0,1,7.5,0ZM44.3,16h5.4a2.82,2.82,0,0,0-5.4,0Z" transform="translate(-40 -13)"/></g></svg>