<svg id="icons" xmlns="http://www.w3.org/2000/svg" viewBox="0 0 44 54">
  <title>1Vector Smart Object3</title>
  <g>
    <path d="M587,573h-7a.89.89,0,0,0-.15,0,2.58,2.58,0,0,0-2.35-2,2,2,0,0,1-1.31-1.23l-.51-1.29A4.21,4.21,0,0,0,572,566h-3a4.21,4.21,0,0,0-3.67,2.49l-.51,1.28A2,2,0,0,1,563.5,571a2.58,2.58,0,0,0-2.35,2,.89.89,0,0,0-.15,0h-8a5,5,0,0,0-5,5v37a5,5,0,0,0,5,5h34a5,5,0,0,0,5-5V578A5,5,0,0,0,587,573Zm-24,1c0-.61.33-1,.5-1a3.81,3.81,0,0,0,3.17-2.49l.51-1.28A2.21,2.21,0,0,1,569,568h3a2.21,2.21,0,0,1,1.81,1.23l.51,1.29a4.19,4.19,0,0,0,.24.49H573a1,1,0,0,0,0,2h4a1,1,0,0,0,.17,0,2.38,2.38,0,0,0,.33,0c.17,0,.5.39.5,1v1a1,1,0,0,1-1,1H564a1,1,0,0,1-1-1Zm27,41a3,3,0,0,1-3,3H553a3,3,0,0,1-3-3V578a3,3,0,0,1,3-3h8a3,3,0,0,0,3,3h13a3,3,0,0,0,3-3h7a3,3,0,0,1,3,3Z" transform="translate(-548 -566)" style="fill: #4c4c4c"/>
    <path d="M568,591a1,1,0,0,0-1,1v2h-8v-8h6a1,1,0,0,0,0-2h-7a1,1,0,0,0-1,1v10a1,1,0,0,0,1,1h10a1,1,0,0,0,1-1v-3A1,1,0,0,0,568,591Z" transform="translate(-548 -566)" style="fill: #4c4c4c"/>
    <path d="M570.24,583.35l-5.8,6.7-2.74-2.72a1,1,0,0,0-1.41,0,1.08,1.08,0,0,0,0,1.48l3.5,3.63c.19.19.44.54.71.54a4.2,4.2,0,0,0,0-1c.28,0,.54.12.72-.09l6.5-7.25a1,1,0,1,0-1.51-1.3Z" transform="translate(-548 -566)" style="fill: #4c4c4c"/>
    <path d="M582,590h-6a1,1,0,0,0,0,2h6a1,1,0,0,0,0-2Z" transform="translate(-548 -566)" style="fill: #4c4c4c"/>
    <path d="M568,601H558a1,1,0,0,0-1,1v10a1,1,0,0,0,1,1h10a1,1,0,0,0,1-1V602A1,1,0,0,0,568,601Zm-1,10h-8v-8h8Z" transform="translate(-548 -566)" style="fill: #4c4c4c"/>
    <path d="M582,606h-6a1,1,0,0,0,0,2h6a1,1,0,0,0,0-2Z" transform="translate(-548 -566)" style="fill: #4c4c4c"/>
  </g>
</svg>
