<svg id="icons" xmlns="http://www.w3.org/2000/svg" viewBox="0 0 53.62 52.9">
  <title>1Vector Smart Object</title>
  <g>
    <path d="M356.73,690.3a3.93,3.93,0,0,0-1.92-2.6L343,679.6a3.64,3.64,0,0,0-2.06-.64,3.53,3.53,0,0,0-2.87,1.45L335,684.76a2.08,2.08,0,0,0-.31,1.15c-1.17.17-4.58.07-10.17-5.52-5.4-5.39-8-9.36-7.63-11.81a1,1,0,0,0,.16-.13,2.12,2.12,0,0,0,.75-.34L322,664.9a3.59,3.59,0,0,0,.66-5l-8.48-11.56c-1.63-2.22-3.55-2.45-5.61-.68a25.64,25.64,0,0,0-4.36,5.43,4.47,4.47,0,0,0-.61,2.67,24.27,24.27,0,0,0,.14,10.47c1.55,7.26,5.72,14.22,12.42,20.71,11.2,10.84,21,12.45,25.9,12.45h0a15.85,15.85,0,0,0,5.78-.91,4.49,4.49,0,0,0,2.52-.7,25.27,25.27,0,0,0,5.29-4.54A3.84,3.84,0,0,0,356.73,690.3ZM354.12,692a23.49,23.49,0,0,1-4.75,4.07,3.34,3.34,0,0,1-.56.26c-1.35-.59-3.73-1.83-4.44-2.72a1,1,0,1,0-1.56,1.25,10.58,10.58,0,0,0,2.93,2.18,17.28,17.28,0,0,1-3.65.36h0c-4.56,0-13.82-1.55-24.51-11.89-15.25-14.76-12.35-28-12-29.42a1,1,0,0,0,0-.4,2.46,2.46,0,0,1,.35-1.61,23.9,23.9,0,0,1,3.92-4.89,2.3,2.3,0,0,1,1.33-.68c.15,0,.61,0,1.37,1l8.48,11.56a1.58,1.58,0,0,1-.25,2.18l-4.19,3.18-.07,0a17.34,17.34,0,0,1-3.1-2.86,1,1,0,1,0-1.67,1.09,16.83,16.83,0,0,0,3.21,3.08c-.8,3.26,1.73,7.61,8.11,14,5.08,5.08,8.78,6.14,11,6.14a4.44,4.44,0,0,0,2.05-.42,1,1,0,0,0,.5-.72,4.54,4.54,0,0,0,0-.55c0-.12,0-.33,0-.44l3-4.25a1.63,1.63,0,0,1,2.17-.32l11.83,8.09c.65.45,1,.86,1.07,1.24A2.07,2.07,0,0,1,354.12,692Z" transform="translate(-303.13 -646.53)"/>
    <path d="M328.8,658A24.41,24.41,0,0,1,345,674.15a1,1,0,0,0,1,.7,1,1,0,0,0,.3,0,1,1,0,0,0,.66-1.25,26.4,26.4,0,0,0-17.52-17.42,1,1,0,1,0-.58,1.91Z" transform="translate(-303.13 -646.53)"/>
    <path d="M330.18,650.64a30,30,0,0,1,22.59,23.81,1,1,0,0,0,1,.82l.18,0a1,1,0,0,0,.81-1.16,32,32,0,0,0-24.09-25.4,1,1,0,0,0-.46,1.95Z" transform="translate(-303.13 -646.53)"/>
  </g>
</svg>
