<svg id="icons" xmlns="http://www.w3.org/2000/svg" viewBox="0 0 52 54">
  <title>1Vector Smart Object2</title>
  <g>
    <path d="M89.25,367.67A1,1,0,0,0,90,368a1,1,0,0,0,.75-.34c.34-.39,8.48-9.7,13-20a15,15,0,0,0,1.49-6.5,15.26,15.26,0,0,0-30.51,0,14.87,14.87,0,0,0,1.45,6.47C80.65,358,88.9,367.27,89.25,367.67Zm.7-39.67a13.23,13.23,0,0,1,13.26,13.17,13,13,0,0,1-1.31,5.67c-3.6,8.24-9.78,16.05-11.9,18.62-2.15-2.56-8.42-10.38-12-18.65a12.93,12.93,0,0,1-1.27-5.64A13.23,13.23,0,0,1,89.95,328Z" transform="translate(-64 -326)" style="fill: #4c4c4c"/>
    <path d="M89.95,348.23A7.24,7.24,0,1,0,82.71,341,7.25,7.25,0,0,0,89.95,348.23Zm0-12.47A5.24,5.24,0,1,1,84.71,341,5.24,5.24,0,0,1,89.95,335.76Z" transform="translate(-64 -326)" style="fill: #4c4c4c"/>
    <path d="M116,378.75l-6-23a1,1,0,0,0-.6-.68l-5-2-.74,1.86,4.53,1.81,5.32,20.38-10-5a1,1,0,0,0-.87,0L90,377.9l-12.58-5.81a1,1,0,0,0-.87,0l-10,5,5.32-20.38,4.53-1.81-.74-1.86-5,2a1,1,0,0,0-.6.68l-6,23a1,1,0,0,0,1.42,1.15L77,374.11l12.56,5.8a1,1,0,0,0,.84,0l12.56-5.8,11.57,5.79a1,1,0,0,0,1.42-1.15Z" transform="translate(-64 -326)" style="fill: #4c4c4c"/>
  </g>
</svg>
