<?xml version="1.0" encoding="iso-8859-1"?>
<!-- Generator: Adobe Illustrator 19.0.0, SVG Export Plug-In . SVG Version: 6.00 Build 0)  -->
<svg version="1.1" id="Layer_1" xmlns="http://www.w3.org/2000/svg" xmlns:xlink="http://www.w3.org/1999/xlink" x="0px" y="0px"
	 viewBox="0 0 330 330" style="enable-background:new 0 0 330 330;" xml:space="preserve">
<g id="XMLID_518_">
	<path id="XMLID_519_" d="M165,0C74.019,0,0,74.019,0,165s74.019,165,165,165s165-74.019,165-165S255.981,0,165,0z M92.995,150.091
		v-24.109c0-14.032,8.624-22.079,23.66-22.079c15.047,0,23.673,8.047,23.673,22.079v24.106c0,14.037-8.627,22.088-23.67,22.088
		C101.621,172.177,92.996,164.127,92.995,150.091z M142.783,227.572c-1.412,2.836-4.17,4.554-7.359,4.558h-0.008
		c-4.404-0.004-8.124-3.652-8.124-7.967c0-1.241,0.3-2.479,0.892-3.676l60.415-118.458c1.219-2.607,3.743-4.16,6.777-4.16
		c4.074,0,8.436,3.33,8.436,8.288c0,1.389-0.292,2.648-0.893,3.85L142.783,227.572z M237.005,206.243
		c0,14.032-8.625,22.08-23.663,22.08c-15.042,0-23.669-8.048-23.669-22.08v-24.112c0-13.827,8.848-22.082,23.668-22.082
		c14.817,0,23.664,8.255,23.664,22.082V206.243z"/>
	<path id="XMLID_524_" d="M213.342,175.186c-1.841,0-4.348,0.283-5.832,1.637c-1.158,1.054-1.746,2.84-1.745,5.309v24.114
		c-0.001,2.467,0.587,4.251,1.743,5.304c1.484,1.35,3.992,1.634,5.833,1.634c6.816,0,7.734-3.508,7.734-6.939v-24.11
		C221.075,178.697,220.156,175.186,213.342,175.186z"/>
	<path id="XMLID_525_" d="M116.659,119.037c-6.661,0-7.579,3.338-7.579,6.945v24.106c0,3.607,0.918,6.944,7.58,6.946
		c6.819-0.002,7.739-3.511,7.739-6.944v-24.108C124.398,122.548,123.478,119.037,116.659,119.037z"/>
</g>
<g>
</g>
<g>
</g>
<g>
</g>
<g>
</g>
<g>
</g>
<g>
</g>
<g>
</g>
<g>
</g>
<g>
</g>
<g>
</g>
<g>
</g>
<g>
</g>
<g>
</g>
<g>
</g>
<g>
</g>
</svg>
